<svg xmlns="http://www.w3.org/2000/svg" width="58" height="60.148" viewBox="0 0 58 60.148"><defs><style>.a{fill:#30aeb0;}</style></defs><path class="a" d="M8.519,15.037a7.525,7.525,0,0,0,7.433-6.444H57.926a1.074,1.074,0,0,0,0-2.148H15.951a7.514,7.514,0,1,0-7.433,8.593Zm0-12.889a5.37,5.37,0,1,1-5.37,5.37A5.376,5.376,0,0,1,8.519,2.148Z" transform="translate(-1)"/><path class="a" d="M51.481,42a7.525,7.525,0,0,0-7.433,6.444H2.074a1.074,1.074,0,1,0,0,2.148H44.049A7.514,7.514,0,1,0,51.481,42Zm0,12.889a5.37,5.37,0,1,1,5.37-5.37A5.376,5.376,0,0,1,51.481,54.889Z" transform="translate(-1 3.111)"/><path class="a" d="M57.926,27.475H37.914a7.738,7.738,0,0,0-15.383,0H2.074a1.074,1.074,0,1,0,0,2.148H22.6a7.731,7.731,0,0,0,15.246,0H57.926a1.074,1.074,0,0,0,0-2.148Zm-27.7,6.444a5.593,5.593,0,1,1,5.593-5.593A5.6,5.6,0,0,1,30.222,33.92Z" transform="translate(-1 1.525)"/></svg>